<svg xmlns="http://www.w3.org/2000/svg" width="512" height="512" viewBox="0 0 512 512">
  <defs>
    <linearGradient id="bg" x1="0%" y1="0%" x2="100%" y2="100%">
      <stop offset="0%" style="stop-color:#0f3460"/>
      <stop offset="100%" style="stop-color:#1565c0"/>
    </linearGradient>
    <linearGradient id="teal" x1="0%" y1="0%" x2="100%" y2="100%">
      <stop offset="0%" style="stop-color:#00897b"/>
      <stop offset="100%" style="stop-color:#26a69a"/>
    </linearGradient>
  </defs>
  <!-- Background -->
  <rect width="512" height="512" rx="61" fill="url(#bg)"/>
  <!-- Building icon (scaled) -->
  <g transform="scale(5.12) translate(18,12)">
    <!-- Main building -->
    <rect x="10" y="35" width="30" height="45" fill="none" stroke="#90caf9" stroke-width="3.5" rx="1"/>
    <!-- Roof peak -->
    <polyline points="8,35 25,18 42,35" fill="none" stroke="#90caf9" stroke-width="3.5" stroke-linejoin="round"/>
    <!-- Windows -->
    <rect x="17" y="44" width="8" height="7" fill="#42a5f5" rx="1" opacity="0.9"/>
    <rect x="30" y="44" width="8" height="7" fill="#42a5f5" rx="1" opacity="0.9"/>
    <rect x="17" y="57" width="8" height="7" fill="#26c6da" rx="1" opacity="0.7"/>
    <rect x="30" y="57" width="8" height="7" fill="#26c6da" rx="1" opacity="0.7"/>
    <!-- Door -->
    <rect x="22" y="68" width="9" height="12" fill="#1976d2" rx="1"/>
    <!-- Pipe symbol (left) -->
    <line x1="2" y1="55" x2="10" y2="55" stroke="#26c6da" stroke-width="3" stroke-linecap="round"/>
    <line x1="2" y1="62" x2="10" y2="62" stroke="#00897b" stroke-width="3" stroke-linecap="round"/>
    <!-- Accent teal bar bottom -->
    <rect x="10" y="78" width="30" height="4" fill="url(#teal)" rx="2"/>
  </g>
</svg>